<svg width="80" height="65" viewBox="0 0 80 65" fill="none" xmlns="http://www.w3.org/2000/svg">
<path fill-rule="evenodd" clip-rule="evenodd" d="M42.2885 0H48.0804C53.058 0 57.0932 4.02937 57.0932 8.99993V14.4623C57.0932 19.4328 53.058 23.4622 48.0804 23.4622H47.6358V28.6697H76.7198C77.0003 28.6697 77.27 28.7158 77.5217 28.8007C78.8927 28.8143 80 29.9283 80 31.3006V41.729C80 43.1097 78.8791 44.229 77.4964 44.229C76.1137 44.229 74.9929 43.1097 74.9929 41.729V33.6696H47.6358V40.6633C47.6358 40.9709 47.5803 41.2656 47.4784 41.5378H48.2625C53.2402 41.5378 57.2754 45.5672 57.2754 50.5377V56.0001C57.2754 60.9706 53.2402 65 48.2625 65H42.4708C37.4931 65 33.458 60.9706 33.458 56.0001V50.5377C33.458 45.5672 37.4931 41.5378 42.4708 41.5378H42.7861C42.6844 41.2656 42.6287 40.9709 42.6287 40.6633V33.6696H15.0974V41.5424C19.9396 41.6968 23.8174 45.665 23.8174 50.5377V56.0001C23.8174 60.9706 19.7823 65 14.8046 65H9.01283C4.03518 65 0 60.9706 0 56.0001V50.5377C0 45.5672 4.03518 41.5378 9.01283 41.5378H10.0903V31.4737C10.0783 31.3741 10.072 31.2726 10.072 31.1697C10.072 29.789 11.1929 28.6697 12.5755 28.6697H42.6287V23.4622H42.2885C37.3109 23.4622 33.2757 19.4328 33.2757 14.4623V8.99993C33.2757 4.02937 37.3109 0 42.2885 0ZM37.4637 50.5377C37.4637 47.7763 39.7055 45.5377 42.4708 45.5377H48.2625C51.028 45.5377 53.2697 47.7763 53.2697 50.5377V56.0001C53.2697 58.7614 51.028 61 48.2625 61H42.4708C39.7055 61 37.4637 58.7614 37.4637 56.0001V50.5377ZM9.01283 45.5377C6.24747 45.5377 4.0057 47.7763 4.0057 50.5377V56.0001C4.0057 58.7614 6.24747 61 9.01283 61H14.8046C17.5699 61 19.8117 58.7614 19.8117 56.0001V50.5377C19.8117 47.7763 17.5699 45.5377 14.8046 45.5377H9.01283Z" fill="#C4C4C4"/>
</svg>
