<svg width="80" height="65" viewBox="0 0 80 65" fill="none" xmlns="http://www.w3.org/2000/svg">
<g filter="url(#filter0_i)">
<path fill-rule="evenodd" clip-rule="evenodd" d="M42.2885 0H48.0804C53.058 0 57.0932 4.0294 57.0932 9V14.4624C57.0932 19.433 53.058 23.4624 48.0804 23.4624H47.6358V28.6699H76.7198C77.0003 28.6699 77.27 28.716 77.5217 28.8009C78.8927 28.8145 80 29.9285 80 31.3008V41.7293C80 43.11 78.8791 44.2293 77.4964 44.2293C76.1137 44.2293 74.9929 43.11 74.9929 41.7293V33.6699H47.6358V40.6636C47.6358 40.9712 47.5803 41.2659 47.4784 41.5381H48.2625C53.2402 41.5381 57.2754 45.5675 57.2754 50.5381V56.0005C57.2754 60.9711 53.2402 65.0005 48.2625 65.0005H42.4708C37.4931 65.0005 33.458 60.9711 33.458 56.0005V50.5381C33.458 45.5675 37.4931 41.5381 42.4708 41.5381H42.7861C42.6844 41.2659 42.6287 40.9712 42.6287 40.6636V33.6699H15.0974V41.5427C19.9396 41.6971 23.8174 45.6654 23.8174 50.5381V56.0005C23.8174 60.9711 19.7823 65.0005 14.8046 65.0005H9.01283C4.03518 65.0005 0 60.9711 0 56.0005V50.5381C0 45.5675 4.03518 41.5381 9.01283 41.5381H10.0903V31.4739C10.0783 31.3743 10.072 31.2728 10.072 31.1699C10.072 29.7892 11.1929 28.6699 12.5755 28.6699H42.6287V23.4624H42.2885C37.3109 23.4624 33.2757 19.433 33.2757 14.4624V9C33.2757 4.0294 37.3109 0 42.2885 0ZM37.4637 50.5381C37.4637 47.7767 39.7054 45.5381 42.4708 45.5381H48.2625C51.028 45.5381 53.2697 47.7767 53.2697 50.5381V56.0005C53.2697 58.7619 51.028 61.0005 48.2625 61.0005H42.4708C39.7054 61.0005 37.4637 58.7619 37.4637 56.0005V50.5381ZM9.01283 45.5381C6.24747 45.5381 4.0057 47.7767 4.0057 50.5381V56.0005C4.0057 58.7619 6.24747 61.0005 9.01283 61.0005H14.8046C17.5699 61.0005 19.8117 58.7619 19.8117 56.0005V50.5381C19.8117 47.7767 17.5699 45.5381 14.8046 45.5381H9.01283Z" fill="url(#paint0_linear)" fill-opacity="0.3"/>
</g>
<defs>
<filter id="filter0_i" x="0" y="0" width="80" height="69.0005" filterUnits="userSpaceOnUse" color-interpolation-filters="sRGB">
<feFlood flood-opacity="0" result="BackgroundImageFix"/>
<feBlend mode="normal" in="SourceGraphic" in2="BackgroundImageFix" result="shape"/>
<feColorMatrix in="SourceAlpha" type="matrix" values="0 0 0 0 0 0 0 0 0 0 0 0 0 0 0 0 0 0 127 0" result="hardAlpha"/>
<feOffset dy="4"/>
<feGaussianBlur stdDeviation="2"/>
<feComposite in2="hardAlpha" operator="arithmetic" k2="-1" k3="1"/>
<feColorMatrix type="matrix" values="0 0 0 0 0.247059 0 0 0 0 0.517647 0 0 0 0 0.807843 0 0 0 0.6 0"/>
<feBlend mode="normal" in2="shape" result="effect1_innerShadow"/>
</filter>
<linearGradient id="paint0_linear" x1="85.3252" y1="28.9915" x2="6.24072" y2="61.1443" gradientUnits="userSpaceOnUse">
<stop stop-color="#5F9BFE"/>
<stop offset="1" stop-color="#13266B"/>
</linearGradient>
</defs>
</svg>
