<svg width="40" height="40" viewBox="0 0 40 40" fill="none" xmlns="http://www.w3.org/2000/svg">
<path d="M5.43875 38.9908C5.43875 38.9908 5.40322 40 6.27664 40C7.36325 40 16.3595 39.9866 16.3595 39.9866L16.3744 30.6615C16.3744 30.6615 16.2322 29.1243 17.5542 29.1243H21.7378C23.3011 29.1243 23.2048 30.6615 23.2048 30.6615L23.1871 39.9566C23.1871 39.9566 31.7171 39.9566 33.0568 39.9566C34.1656 39.9566 34.1153 38.7001 34.1153 38.7001V21.5085L20.2056 7.54338L5.43875 21.5085V38.9908Z" fill="#C4C4C4"/>
<path d="M0 20.2092C0 20.2092 1.25389 22.8174 3.98816 20.2092L20.3286 4.60659L35.6491 20.1123C38.8142 22.6887 40 20.1123 40 20.1123L20.3286 0L0 20.2092Z" fill="#C4C4C4"/>
<path d="M35.2778 4.56895H31.337L31.3533 9.96252L35.2778 13.7203V4.56895Z" fill="#C4C4C4"/>
</svg>
